SplineFontDB: 3.2
FontName: acil_air
FullName: acil_air
FamilyName: acil_air
Weight: Regular
Copyright: 
Version: 
ItalicAngle: 0
UnderlinePosition: 0
UnderlineWidth: 0
Ascent: 750
Descent: 250
InvalidEm: 0
LayerCount: 2
Layer: 0 0 "+gMyXYgAA" 1
Layer: 1 0 "+Uk2XYgAA" 0
XUID: [1021 15 -1218523096 18832]
FSType: 0
OS2Version: 0
OS2_WeightWidthSlopeOnly: 0
OS2_UseTypoMetrics: 0
CreationTime: 1742809414
ModificationTime: 1742809837
PfmFamily: 17
TTFWeight: 400
TTFWidth: 5
LineGap: 90
VLineGap: 90
OS2TypoAscent: 0
OS2TypoAOffset: 1
OS2TypoDescent: 0
OS2TypoDOffset: 1
OS2TypoLinegap: 90
OS2WinAscent: 0
OS2WinAOffset: 1
OS2WinDescent: 0
OS2WinDOffset: 1
HheadAscent: 0
HheadAOffset: 1
HheadDescent: 0
HheadDOffset: 1
OS2Vendor: 'PfEd'
MarkAttachClasses: 1
DEI: 91125
Encoding: ISO8859-1
UnicodeInterp: none
NameList: AGL For New Fonts
DisplaySize: -48
AntiAlias: 1
FitToEm: 0
WidthSeparation: 20
WinInfo: 0 38 16
BeginPrivate: 0
EndPrivate
BeginChars: 257 62

StartChar: 
Encoding: 97 97 0
Width: 388
VWidth: 750
Flags: HW
LayerCount: 2
Fore
SplineSet
230.390625 503.92578125 m 0
 197.615234375 503.889648438 168.524414062 494.0546875 145 477.8359375 c 1
 145 500 l 1
 55 479.009765625 l 1
 10 468.05078125 l 1
 10 455.05078125 l 1
 52.6572265625 455.05078125 55 438.6484375 55 405.009765625 c 2
 55 0 l 1
 145 0 l 1
 145 30.744140625 l 1
 168.5234375 11.146484375 197.086914062 -0.9560546875 230.390625 0 c 0
 312.10546875 0 378.349609375 52.2138671875 378.349609375 162 c 0
 378.349609375 224.696289062 337.251953125 262.698242188 287.2265625 282.51171875 c 1
 337.252929688 295.873046875 378.349609375 325.229492188 378.349609375 387.92578125 c 0
 378.349609375 471.548828125 312.10546875 503.92578125 230.390625 503.92578125 c 0
210.267578125 470.318359375 m 0
 240.129882812 470.318359375 284 471.182617188 284 387.92578125 c 0
 284 316.157226562 238.482421875 299.525390625 195.224609375 299.92578125 c 1
 195.88671875 290.610351562 195.52734375 281.31640625 195.224609375 272 c 1
 232.658203125 272.376953125 284 222.813476562 284 150 c 0
 284 89.2431640625 240.129882812 65.607421875 210.267578125 65.607421875 c 0
 184.38671875 65.087890625 162.936523438 73.6650390625 145 87.349609375 c 1
 145 446.158203125 l 1
 164.259765625 461.334960938 187.008789062 470.78515625 210.267578125 470.318359375 c 0
EndSplineSet
EndChar

StartChar: 
Encoding: 98 98 1
Width: 406
VWidth: 750
Flags: HW
LayerCount: 2
Fore
SplineSet
145 750 m 1
 55 729.009765625 l 1
 10 718.05078125 l 1
 10 705.05078125 l 1
 52.6572265625 705.05078125 55 688.6484375 55 655.009765625 c 2
 55 250 l 1
 55 233.736328125 l 2
 55 190.236328125 63.9150390625 0 216.43359375 0 c 0
 341.142578125 0 395.849609375 108.953125 395.849609375 262.990234375 c 0
 395.849609375 400.052734375 275.284179688 564 145 476 c 1
 145 750 l 1
205.9921875 468.337890625 m 0
 271.49609375 464.336914062 310.466796875 353.131835938 310.466796875 259.904296875 c 0
 310.466796875 137.725585938 269.275390625 53.4873046875 226.359375 52.89453125 c 0
 146.579101562 51.7919921875 145 250 145 250 c 1
 145 443.736328125 l 1
 167.228515625 462.173828125 187.651367188 469.458007812 205.9921875 468.337890625 c 0
EndSplineSet
EndChar

StartChar: 
Encoding: 99 99 2
Width: 340
VWidth: 750
Flags: HW
LayerCount: 2
Fore
SplineSet
181.828125 500 m 0
 94.4130859375 499.854492188 37.609375 425.01171875 37.609375 378.002929688 c 1
 51.16796875 366.2890625 l 1
 51.16796875 424.6328125 114.043945312 459.15625 161.705078125 457.724609375 c 0
 191.567382812 457.724609375 235.4375 454.943359375 235.4375 330.395507812 c 0
 235.4375 223.033203125 189.919921875 164.153320312 146.662109375 164.751953125 c 1
 147.32421875 150.817382812 146.96484375 158.913085938 146.662109375 144.9765625 c 1
 184.095703125 145.541015625 235.4375 105.724609375 235.4375 -31.5283203125 c 0
 235.4375 -122.41796875 204.6015625 -185.775390625 161.705078125 -185.775390625 c 0
 105.078125 -187.475585938 49.4599609375 -130.482421875 26.134765625 -63.3291015625 c 1
 10 -65.4443359375 l 1
 29.3056640625 -176.107421875 98.91015625 -253.483398438 181.828125 -249.920898438 c 0
 301.139648438 -249.920898438 329.787109375 -128.767578125 329.787109375 -32.1796875 c 0
 329.787109375 84.28125 288.69140625 121.0625 238.666015625 150.702148438 c 1
 288.692382812 170.689453125 329.787109375 236.60546875 329.787109375 330.395507812 c 0
 329.787109375 455.4921875 263.54296875 500 181.828125 500 c 0
EndSplineSet
EndChar

StartChar: 
Encoding: 100 100 3
Width: 649
VWidth: 750
Flags: HW
LayerCount: 2
Fore
SplineSet
145 500 m 1
 55 479.009765625 l 1
 10 468.05078125 l 1
 10 455.05078125 l 1
 52.6572265625 455.05078125 55 438.6484375 55 405.009765625 c 2
 55 401.005859375 l 1
 55 93 l 2
 55 49.5 82.30078125 0 159.865234375 0 c 0
 206.366210938 0 242.321289062 31.572265625 264.998046875 93 c 1
 264.998046875 49.5 292.298828125 0 369.86328125 0 c 0
 416.364257812 0 452.321289062 31.572265625 474.998046875 93 c 1
 474.998046875 49.5 499.702148438 0 550.43359375 0 c 0
 610.784179688 0 630.70703125 62.05859375 638.998046875 93 c 1
 628.998046875 105 l 1
 611.38671875 58.078125 586.36328125 53.751953125 574.2734375 64.33203125 c 0
 563.791992188 73.50390625 564.998046875 93.69921875 564.998046875 109.263671875 c 2
 564.998046875 401.005859375 l 1
 564.998046875 500 l 1
 474.998046875 479.009765625 l 1
 429.998046875 468.05078125 l 1
 429.998046875 455.05078125 l 1
 472.655273438 455.05078125 474.998046875 438.6484375 474.998046875 405.009765625 c 2
 474.998046875 401.005859375 l 1
 474.998046875 135 l 1
 474.998046875 135 440.236328125 52.89453125 403.7890625 52.89453125 c 0
 376.000976562 52.89453125 359.6640625 63.4951171875 354.998046875 109.263671875 c 1
 354.998046875 401.005859375 l 1
 354.998046875 500 l 1
 264.998046875 479.009765625 l 1
 219.998046875 468.05078125 l 1
 219.998046875 455.05078125 l 1
 262.655273438 455.05078125 264.998046875 438.6484375 264.998046875 405.009765625 c 2
 264.998046875 401.005859375 l 1
 264.998046875 135 l 1
 264.998046875 135 230.236328125 52.89453125 193.7890625 52.89453125 c 0
 166.000976562 52.89453125 149.666015625 63.4951171875 145 109.263671875 c 1
 145 401.005859375 l 1
 145 500 l 1
EndSplineSet
EndChar

StartChar: 
Encoding: 101 101 4
Width: 439
VWidth: 750
Flags: HW
LayerCount: 2
Fore
SplineSet
145 500 m 1
 55 479.009765625 l 1
 10 468.05078125 l 1
 10 455.05078125 l 1
 52.6572265625 455.05078125 55 438.6484375 55 405.009765625 c 2
 55 401.005859375 l 1
 55 93 l 2
 55 49.5 82.30078125 0 159.865234375 0 c 0
 206.366210938 0 242.323242188 31.572265625 265 93 c 1
 265 49.5 289.702148438 0 340.43359375 0 c 0
 400.784179688 0 420.708984375 62.05859375 429 93 c 1
 419 105 l 1
 401.388671875 58.078125 376.365234375 53.751953125 364.275390625 64.33203125 c 0
 353.793945312 73.50390625 355 93.69921875 355 109.263671875 c 2
 355 401.005859375 l 1
 355 500 l 1
 265 479.009765625 l 1
 220 468.05078125 l 1
 220 455.05078125 l 1
 262.657226562 455.05078125 265 438.6484375 265 405.009765625 c 2
 265 401.005859375 l 1
 265 135 l 1
 265 135 230.23828125 52.89453125 193.791015625 52.89453125 c 0
 166.002929688 52.89453125 149.666015625 63.4951171875 145 109.263671875 c 1
 145 401.005859375 l 1
 145 500 l 1
EndSplineSet
EndChar

StartChar: 
Encoding: 102 102 5
Width: 484
VWidth: 750
Flags: HW
LayerCount: 2
Fore
SplineSet
132.158203125 500 m 2
 83.10546875 500 10.158203125 467.501953125 10.158203125 379 c 2
 10.158203125 0 l 1
 100.158203125 0 l 1
 100.158203125 362.736328125 l 2
 100.158203125 497.204101562 180.158203125 508.485351562 180.158203125 362.736328125 c 2
 180.158203125 0 l 1
 270.158203125 0 l 1
 270.158203125 362.736328125 l 2
 270.158203125 508.485351562 350.158203125 497.204101562 350.158203125 362.736328125 c 2
 350.158203125 48 l 2
 346.66015625 -33.6513671875 328.395507812 -113.0625 157.552734375 -131.078125 c 1
 102.03125 -132.737304688 10 -238.7109375 10 -238.7109375 c 1
 18 -246.47265625 l 1
 52.658203125 -202.235351562 126.13671875 -197.084960938 167.536132812 -204.513671875 c 0
 177.598632812 -209.25390625 326.572265625 -247.485351562 336.60546875 -247.185546875 c 0
 392.125976562 -245.526367188 474.158203125 -139.552734375 474.158203125 -139.552734375 c 1
 466.158203125 -131.791015625 l 1
 431.500976562 -176.026367188 376.0234375 -184.1796875 326.625 -173.751953125 c 0
 320.80859375 -171.01171875 268.641601562 -157.125 223.61328125 -145.904296875 c 1
 368.034179688 -129.258789062 434.403320312 -36.650390625 439.76171875 38.18359375 c 1
 440.158203125 38.18359375 l 1
 440.158203125 48 l 1
 440.158203125 379 l 2
 440.158203125 467.501953125 367.2109375 500 318.158203125 500 c 2
 302.158203125 500 l 2
 274.977539062 500 243.921875 484 225.158203125 451.501953125 c 1
 206.395507812 484 175.338867188 500 148.158203125 500 c 2
 132.158203125 500 l 2
EndSplineSet
EndChar

StartChar: 
Encoding: 103 103 6
Width: 322
VWidth: 750
Flags: HW
LayerCount: 2
Fore
SplineSet
168 500 m 0
 80.7392578125 500 10 388.071289062 10 250 c 0
 10 111.928710938 80.7392578125 0 168 0 c 0
 231.830078125 0 286.783203125 59.9267578125 311.7109375 146.130859375 c 1
 293.296875 146.130859375 l 1
 240.565429688 59.3359375 202.16015625 74.091796875 184.791015625 74.091796875 c 0
 167.999023438 74.091796875 109.1484375 98.3369140625 109.1484375 250 c 0
 109.1484375 262.2578125 109.247070312 272.85546875 109.314453125 283.94140625 c 1
 303.7109375 283.94140625 l 1
 303.7109375 283.990234375 l 1
 304.422851562 283.985351562 304.975585938 283.94140625 305.7109375 283.94140625 c 0
 315.321289062 416.948242188 264.389648438 500 168 500 c 0
156.685546875 467.302734375 m 0
 199.943359375 467.302734375 228.416015625 395.340820312 228.416015625 312.224609375 c 1
 109.544921875 312.224609375 l 1
 111.220703125 423.837890625 119.671875 467.302734375 156.685546875 467.302734375 c 0
55.349609375 -78.251953125 m 1
 59.14453125 -133.766601562 105.211914062 -176.901367188 160.85546875 -177.04296875 c 0
 216.499023438 -176.901367188 262.56640625 -133.766601562 266.361328125 -78.251953125 c 1
 252.642578125 -78.251953125 l 1
 246.087890625 -103.297851562 206.985351562 -121.900390625 160.85546875 -121.91796875 c 0
 114.725585938 -121.900390625 75.625 -103.297851562 69.0703125 -78.251953125 c 1
 55.349609375 -78.251953125 l 1
EndSplineSet
EndChar

StartChar: 
Encoding: 104 104 7
Width: 322
VWidth: 750
Flags: HW
LayerCount: 2
Fore
SplineSet
167.999023438 500 m 0
 80.7392578125 500 10 388.071289062 10 250 c 0
 10 111.928710938 80.7392578125 0 167.999023438 0 c 0
 231.830078125 0 286.780273438 59.9267578125 311.708984375 146.130859375 c 1
 293.296875 146.130859375 l 1
 240.56640625 59.3359375 202.161132812 74.091796875 184.791992188 74.091796875 c 0
 167.999023438 74.091796875 109.1484375 98.3369140625 109.1484375 250 c 0
 109.1484375 408.250976562 169.415039062 496.092773438 214.663085938 463.509765625 c 0
 259.91015625 430.926757812 210.022460938 396.880859375 223.916992188 361.8515625 c 0
 237.811523438 326.822265625 276.829101562 327.07421875 289.788085938 335.716796875 c 0
 302.747070312 344.359375 304.5 366.310546875 302.287109375 375.534179688 c 0
 291.927734375 452.759765625 242.547851562 500 167.999023438 500 c 0
EndSplineSet
EndChar

StartChar: 
Encoding: 105 105 8
Width: 439
VWidth: 750
Flags: HW
LayerCount: 2
Fore
SplineSet
145 500 m 1
 55 479.009765625 l 1
 10 468.05078125 l 1
 10 455.05078125 l 1
 52.6572265625 455.05078125 55 438.6484375 55 405.009765625 c 2
 55 0 l 1
 145 0 l 1
 145 365 l 1
 145 365 179.76171875 447.10546875 216.208984375 447.10546875 c 0
 243.997070312 447.10546875 260.333984375 436.504882812 265 390.736328125 c 1
 265 98.994140625 l 1
 265 93 l 2
 265 49.5 289.702148438 0 340.43359375 0 c 0
 400.784179688 0 420.708984375 62.05859375 429 93 c 1
 419 105 l 1
 401.388671875 58.078125 376.365234375 53.751953125 364.275390625 64.33203125 c 0
 355.982421875 71.5888671875 355.024414062 85.689453125 354.978515625 98.994140625 c 1
 355 98.994140625 l 1
 355 109.263671875 l 1
 355 401.005859375 l 1
 355 407 l 2
 355 450.5 327.69921875 500 250.134765625 500 c 0
 203.633789062 500 167.676757812 468.427734375 145 407 c 1
 145 500 l 1
EndSplineSet
EndChar

StartChar: 
Encoding: 106 106 9
Width: 365
VWidth: 750
Flags: HW
LayerCount: 2
Fore
SplineSet
145 500 m 1
 55 479.009765625 l 1
 10 468.05078125 l 1
 10 455.05078125 l 1
 52.6572265625 455.05078125 55 438.6484375 55 405.009765625 c 2
 55 401.005859375 l 1
 55 93 l 2
 55 49.5 82.30078125 0 159.865234375 0 c 0
 206.366210938 0 242.321289062 31.572265625 264.998046875 93 c 1
 264.998046875 -25.736328125 l 2
 264.998046875 -79.3974609375 262.454101562 -223.072265625 193.455078125 -224.046875 c 0
 173.998046875 -227.458984375 160.444335938 -207.509765625 156.71484375 -192.05859375 c 0
 139.959960938 -154.028320312 111.822265625 -155.462890625 92.68359375 -162.173828125 c 0
 45.572265625 -178.693359375 92.744140625 -250 183.220703125 -250 c 0
 354.999023438 -250 354.998046875 -85.5 354.998046875 -42 c 2
 354.998046875 401.005859375 l 1
 354.998046875 500 l 1
 264.998046875 479.009765625 l 1
 219.998046875 468.05078125 l 1
 219.998046875 455.05078125 l 1
 262.655273438 455.05078125 264.998046875 438.6484375 264.998046875 405.009765625 c 2
 264.998046875 401.005859375 l 1
 264.998046875 135 l 1
 264.998046875 135 230.23828125 52.89453125 193.791015625 52.89453125 c 0
 166.002929688 52.89453125 149.666015625 63.4951171875 145 109.263671875 c 1
 145 401.005859375 l 1
 145 500 l 1
EndSplineSet
EndChar

StartChar: 
Encoding: 108 108 10
Width: 324
VWidth: 750
Flags: HW
LayerCount: 2
Fore
SplineSet
165.828125 503.92578125 m 0
 91.2705078125 503.842773438 35.779296875 453.095703125 21.609375 391.673828125 c 1
 35.16796875 383.84375 l 1
 52.3974609375 430.975585938 98.0439453125 471.274414062 145.705078125 470.318359375 c 0
 175.567382812 470.318359375 219.4375 471.182617188 219.4375 387.92578125 c 0
 219.4375 316.157226562 173.919921875 299.525390625 130.662109375 299.92578125 c 1
 131.32421875 290.610351562 130.96484375 281.31640625 130.662109375 272 c 1
 168.095703125 272.376953125 219.4375 222.813476562 219.4375 150 c 0
 219.4375 89.2431640625 175.567382812 65.607421875 145.705078125 65.607421875 c 0
 89.078125 64.470703125 53.4599609375 106.580078125 30.134765625 151.470703125 c 1
 10 150.056640625 l 1
 29.3056640625 76.0810546875 82.91015625 -2.3818359375 165.828125 0 c 0
 247.54296875 0 313.787109375 52.2138671875 313.787109375 162 c 0
 313.787109375 224.696289062 272.69140625 262.698242188 222.666015625 282.51171875 c 1
 272.692382812 295.873046875 313.787109375 325.229492188 313.787109375 387.92578125 c 0
 313.787109375 471.548828125 247.54296875 503.92578125 165.828125 503.92578125 c 0
EndSplineSet
EndChar

StartChar: 
Encoding: 109 109 11
Width: 443
VWidth: 750
Flags: HW
LayerCount: 2
Fore
SplineSet
211.936523438 749.421875 m 1
 148.666015625 752.788085938 68.70703125 709.645507812 30.9638671875 601.2578125 c 0
 -10.3701171875 482.557617188 -0.7509765625 314.29296875 153.541992188 325.361328125 c 1
 163.270507812 353.302734375 l 1
 38.2099609375 331.116210938 79.6337890625 457.89453125 115.620117188 561.23828125 c 0
 152.465820312 667.047851562 173.08984375 691.12109375 212.522460938 698.4609375 c 0
 298.724609375 714.505859375 232.862304688 472.94140625 232.862304688 472.94140625 c 1
 85.1982421875 72.10546875 l 1
 80.2939453125 58.021484375 l 2
 80.18359375 57.7041015625 79.9970703125 57.01953125 79.8818359375 56.68359375 c 2
 78.8681640625 53.927734375 l 1
 79.0166015625 53.884765625 l 1
 64.5927734375 10.6689453125 22.4423828125 -150.84375 168.104492188 -225.1171875 c 0
 290.392578125 -287.471679688 376.895507812 -220.46875 423.348632812 -87.068359375 c 0
 458.665039062 14.3486328125 395.483398438 255.446289062 280.114257812 316.646484375 c 1
 321.114257812 427.94140625 l 1
 326.018554688 442.025390625 l 2
 326.102539062 442.267578125 326.25 442.852539062 326.336914062 443.107421875 c 2
 327.444335938 446.119140625 l 1
 327.241210938 446.17578125 l 1
 341.673828125 490.448242188 385.719726562 679.268554688 252.350585938 739.892578125 c 0
 240.250976562 745.392578125 226.538085938 748.645507812 211.936523438 749.421875 c 1
269.291992188 287.26953125 m 1
 345.453125 229.20703125 367.8671875 36.7294921875 338.692382812 -47.05078125 c 0
 301.846679688 -152.860351562 236.051757812 -205.215820312 193.790039062 -184.271484375 c 0
 115.2265625 -145.3359375 173.450195312 27.10546875 173.450195312 27.10546875 c 1
 269.291992188 287.26953125 l 1
EndSplineSet
EndChar

StartChar: 
Encoding: 110 110 12
Width: 559
VWidth: 750
Flags: HW
LayerCount: 2
Fore
SplineSet
145 500 m 1
 55 479.009765625 l 1
 10 468.05078125 l 1
 10 455.05078125 l 1
 52.6572265625 455.05078125 55 438.6484375 55 405.009765625 c 2
 55 401.005859375 l 1
 55 93 l 2
 55 49.5 82.30078125 0 159.865234375 0 c 0
 196.572265625 0 226.673828125 19.755859375 248.89453125 58.2578125 c 1
 270.477539062 13.150390625 324.044921875 0 353.59375 0 c 0
 423.825195312 0 499.685546875 83.91796875 499.685546875 210.462890625 c 1
 516.0625 210.059570312 532.444335938 210.248046875 548.82421875 210.212890625 c 1
 547.90234375 227 l 1
 547.90234375 227 528.959960938 225.213867188 501.033203125 225.90625 c 1
 501.65234375 235.133789062 502 240.497070312 502 250 c 0
 502 388.0703125 441.6171875 500 358.763671875 500 c 0
 263.859375 500 228.4453125 423.150390625 228.4453125 387.869140625 c 1
 228.4453125 387.869140625 222.604492188 255.512695312 405.6953125 216.767578125 c 1
 405.6953125 -19.2626953125 199.741210938 46.771484375 292.107421875 216.0078125 c 1
 281.515625 227.892578125 l 1
 246.938476562 168.00390625 236.645507812 123.153320312 240.240234375 89.76953125 c 1
 227.3359375 70.732421875 210.771484375 52.89453125 193.791015625 52.89453125 c 0
 166.002929688 52.89453125 149.666015625 63.4951171875 145 109.263671875 c 1
 145 401.005859375 l 1
 145 500 l 1
338.46484375 460 m 0
 372.345703125 460 406.3359375 401.663085938 406.3359375 250 c 0
 406.3359375 244.505859375 406.186523438 239.427734375 406.099609375 234.17578125 c 1
 278.545898438 250 260.578125 460 338.46484375 460 c 0
EndSplineSet
EndChar

StartChar: 
Encoding: 111 111 13
Width: 367
VWidth: 750
Flags: HW
LayerCount: 2
Fore
SplineSet
143.916992188 500 m 0
 77.5654296875 500 30.6484375 464.614257812 12.2666015625 405.107421875 c 1
 23.5791015625 391.9921875 l 1
 23.5791015625 391.9921875 54.169921875 467.627929688 121.803710938 466.392578125 c 0
 159.4296875 466.392578125 196.854492188 417.462890625 202.137695312 283.232421875 c 1
 3.69140625 244.487304688 10.0224609375 112.130859375 10.0224609375 112.130859375 c 1
 10.0224609375 76.849609375 48.4072265625 0 151.270507812 0 c 0
 241.072265625 0 306.518554688 111.9296875 306.518554688 250 c 0
 306.518554688 259.502929688 306.142578125 264.866210938 305.471679688 274.09375 c 1
 335.740234375 274.786132812 356.270507812 273 356.270507812 273 c 1
 357.270507812 289.787109375 l 1
 339.516601562 289.751953125 321.760742188 289.940429688 304.010742188 289.537109375 c 1
 290.603515625 406.840820312 224.0546875 500 143.916992188 500 c 0
202.577148438 265.82421875 m 1
 202.670898438 260.572265625 202.833007812 255.494140625 202.833007812 250 c 0
 202.833007812 98.3369140625 165.993164062 40 129.270507812 40 c 0
 44.8515625 40 64.326171875 250 202.577148438 265.82421875 c 1
EndSplineSet
EndChar

StartChar: 
Encoding: 112 112 14
Width: 450
VWidth: 750
Flags: HW
LayerCount: 2
Fore
SplineSet
114.25390625 500 m 0
 53.2958984375 500 14.109375 455.823242188 10 392.07421875 c 1
 22.861328125 380.07421875 l 1
 22.861328125 380.07421875 30.6328125 466.793945312 93.9375 466.392578125 c 0
 131.236328125 466.15625 160.423828125 409.624023438 160.423828125 250 c 0
 160.423828125 98.3369140625 146.84765625 49 104.60546875 49 c 0
 45.3896484375 49 22.1025390625 91.3046875 21.0390625 146.130859375 c 1
 11.55859375 146.130859375 l 1
 11.7646484375 23.2978515625 76.9287109375 0 112.126953125 0 c 0
 152.163085938 0 215.314453125 50.7197265625 215.314453125 95.322265625 c 1
 215.314453125 53.998046875 276.676757812 0 315.580078125 0 c 0
 374.22265625 0 434.853515625 49.7666015625 434.853515625 146.130859375 c 1
 422.328125 146.130859375 l 1
 422.328125 96.9873046875 382.469726562 48.091796875 331.0078125 48.091796875 c 0
 293.256835938 48.091796875 271.51171875 98.3369140625 271.51171875 250 c 0
 271.51171875 408.250976562 311.520507812 488.333984375 347.927734375 464.216796875 c 0
 364.986328125 452.916992188 356.3125 428.380859375 366.951171875 405.8515625 c 0
 382.932617188 372.010742188 415.565429688 371.07421875 427.470703125 379.716796875 c 0
 439.376953125 388.359375 444.288085938 403.927734375 435.5703125 424.12890625 c 0
 426.852539062 444.330078125 397.599609375 500 315.580078125 500 c 0
 276.951171875 500 241.875 473.961914062 215.8671875 431.583984375 c 1
 189.61328125 473.961914062 154.0078125 500 114.25390625 500 c 0
EndSplineSet
EndChar

StartChar: 
Encoding: 113 113 15
Width: 470
VWidth: 750
Flags: HW
LayerCount: 2
Fore
SplineSet
109.411132812 500 m 0
 64.876953125 500 23.9365234375 464.614257812 11.5986328125 405.107421875 c 1
 19.1904296875 391.9921875 l 1
 19.1904296875 391.9921875 49.17578125 467.627929688 94.5693359375 466.392578125 c 0
 119.823242188 466.392578125 135.254882812 430.581054688 135.254882812 283.232421875 c 1
 2.0625 244.487304688 10.0927734375 112.130859375 10.0927734375 112.130859375 c 1
 10.0927734375 34.5888671875 45.3076171875 0 114.346679688 0 c 0
 176.204101562 0 218.545898438 70.7578125 218.545898438 250 c 0
 218.545898438 259.502929688 218.293945312 264.866210938 217.842773438 274.09375 c 1
 224.643554688 274.325195312 230.327148438 274.240234375 235.391601562 274.076171875 c 1
 235.020507812 266.149414062 234.813476562 258.125 234.813476562 250 c 0
 234.813476562 111.928710938 276.026367188 0 348.420898438 0 c 0
 414.307617188 0 443.267578125 59.9267578125 459.999023438 146.130859375 c 1
 440.079101562 146.130859375 l 1
 404.6875 59.3359375 371.350585938 74.091796875 359.692382812 74.091796875 c 0
 348.421875 74.091796875 314.592773438 98.3369140625 314.592773438 250 c 0
 314.592773438 408.250976562 343.760742188 485.487304688 379.741210938 463.509765625 c 0
 415.721679688 441.532226562 387.967773438 396.880859375 397.293945312 361.8515625 c 0
 406.619140625 326.822265625 432.806640625 327.07421875 441.504882812 335.716796875 c 0
 450.203125 344.359375 451.37890625 366.309570312 449.893554688 375.533203125 c 0
 441 474.313476562 398.456054688 500 348.420898438 500 c 0
 295.600585938 500 245.666992188 408.948242188 236.372070312 289.798828125 c 1
 229.868164062 289.798828125 223.364257812 289.7578125 216.862304688 289.537109375 c 1
 207.864257812 406.840820312 163.198242188 500 109.411132812 500 c 0
135.549804688 265.82421875 m 1
 135.61328125 260.572265625 135.721679688 255.494140625 135.721679688 250 c 0
 135.721679688 77.2060546875 124.228515625 40 99.5810546875 40 c 0
 64.4296875 40 42.7587890625 250 135.549804688 265.82421875 c 1
EndSplineSet
EndChar

StartChar: 
Encoding: 114 114 16
Width: 275
VWidth: 750
Flags: HW
LayerCount: 2
Fore
SplineSet
145 748.67578125 m 1
 55 727.6875 l 1
 10 716.7265625 l 1
 10 703.7265625 l 1
 52.6572265625 703.7265625 55 687.325195312 55 653.6875 c 2
 55 649.681640625 l 1
 55 93 l 2
 55 49.5 82.30078125 0 159.865234375 0 c 0
 206.366210938 0 242.323242188 31.572265625 265 93 c 1
 255 105 l 1
 255 105 230.23828125 52.89453125 193.791015625 52.89453125 c 0
 166.002929688 52.89453125 149.666015625 63.4951171875 145 109.263671875 c 1
 145 649.681640625 l 1
 145 748.67578125 l 1
EndSplineSet
EndChar

StartChar: 
Encoding: 115 115 17
Width: 413
VWidth: 750
Flags: HW
LayerCount: 2
Fore
SplineSet
145 500 m 1
 55 479.009765625 l 1
 10 468.05078125 l 1
 10 455.05078125 l 1
 52.6572265625 455.05078125 55 438.6484375 55 405.009765625 c 2
 55 0 l 1
 145 0 l 1
 145 48.275390625 l 1
 171.88671875 17.984375 205.002929688 0 240.89453125 0 c 0
 330.697265625 0 403.498046875 111.9296875 403.498046875 250 c 0
 403.498046875 388.0703125 330.697265625 500 240.89453125 500 c 0
 201.366210938 500 168.809570312 487.358398438 145 464.623046875 c 1
 145 500 l 1
218.78125 466.392578125 m 0
 259.376953125 466.392578125 299.810546875 409.624023438 299.810546875 250 c 0
 299.810546875 98.3369140625 276.373046875 37 239.650390625 37 c 0
 219.409179688 37 179.44140625 36.83984375 145 81.2421875 c 1
 145 434.298828125 l 1
 161.594726562 450.975585938 186.044921875 466.990234375 218.78125 466.392578125 c 0
EndSplineSet
EndChar

StartChar: 
Encoding: 116 116 18
Width: 442
VWidth: 750
Flags: HW
LayerCount: 2
Fore
SplineSet
145 500 m 1
 55 479.009765625 l 1
 10 468.05078125 l 1
 10 455.05078125 l 1
 52.6572265625 455.05078125 55 438.6484375 55 405.009765625 c 2
 55 0 l 1
 145 0 l 1
 268.5 398.294921875 l 1
 268.5 93 l 2
 268.5 49.5 293.204101562 0 343.935546875 0 c 0
 404.286132812 0 424.208984375 62.05859375 432.5 93 c 1
 422.5 105 l 1
 404.888671875 58.078125 379.865234375 53.751953125 367.775390625 64.33203125 c 0
 357.293945312 73.50390625 358.5 93.69921875 358.5 109.263671875 c 2
 358.5 500 l 1
 268.5 500 l 1
 145 101.705078125 l 1
 145 500 l 1
EndSplineSet
EndChar

StartChar: 
Encoding: 117 117 19
Width: 330
VWidth: 750
Flags: HW
LayerCount: 2
Fore
SplineSet
157.895507812 500 m 0
 91.5439453125 500 44.626953125 464.614257812 26.2451171875 405.107421875 c 1
 37.55859375 389.991210938 l 1
 37.55859375 389.991210938 68.1494140625 467.62890625 135.782226562 466.393554688 c 0
 176.377929688 466.393554688 216.811523438 409.624023438 216.811523438 250 c 0
 216.811523438 98.3369140625 193.374023438 37 156.651367188 37 c 0
 129.326171875 37 66.037109375 36.6171875 28.9482421875 146.130859375 c 1
 10 146.130859375 l 1
 35.654296875 59.9267578125 92.2060546875 0 157.895507812 0 c 0
 247.698242188 0 320.498046875 111.9296875 320.498046875 250 c 0
 320.498046875 388.0703125 247.698242188 500 157.895507812 500 c 0
EndSplineSet
EndChar

StartChar: 
Encoding: 118 118 20
Width: 444
VWidth: 750
Flags: HW
LayerCount: 2
Fore
SplineSet
206 500 m 2
 156.948242188 500 60 467.501953125 60 379 c 2
 60 0 l 1
 150 0 l 1
 150 362.736328125 l 2
 150 397.14453125 161.645507812 467.501953125 206 467.501953125 c 2
 214 467.501953125 l 1
 222 467.501953125 l 2
 266.35546875 467.501953125 278 397.14453125 278 362.736328125 c 2
 278 48 l 2
 278 -31.37109375 232.373046875 -109.069335938 152.923828125 -131.474609375 c 1
 97.07421875 -138.466796875 10 -238.7109375 10 -238.7109375 c 2
 18 -246.47265625 l 1
 52.66015625 -202.235351562 126.13671875 -197.084960938 167.537109375 -204.513671875 c 0
 177.598632812 -209.25390625 286.571289062 -247.485351562 296.603515625 -247.185546875 c 0
 352.125 -245.526367188 434.15625 -139.552734375 434.15625 -139.552734375 c 2
 426.15625 -131.791015625 l 1
 391.498046875 -176.026367188 336.024414062 -184.1796875 286.625 -173.751953125 c 0
 279.900390625 -170.583984375 229.237304688 -152.572265625 193.201171875 -140.986328125 c 1
 265.737304688 -109.637695312 368 -23.6875 368 48 c 2
 368 379 l 2
 368 467.501953125 271.051757812 500 222 500 c 2
 214 500 l 1
 206 500 l 2
EndSplineSet
EndChar

StartChar: 
Encoding: 119 119 21
Width: 385
VWidth: 750
Flags: HW
LayerCount: 2
Fore
SplineSet
192.5 500 m 0
 91.7080078125 500 10 388.071289062 10 250 c 0
 10 111.928710938 91.7080078125 0 192.5 0 c 0
 293.291992188 0 375 111.928710938 375 250 c 0
 375 388.071289062 293.291992188 500 192.5 500 c 0
162.819335938 472.89453125 m 0
 208.016601562 478.653320312 257.9453125 389.052734375 274.337890625 260.4296875 c 0
 290.731445312 131.805664062 267.379882812 32.865234375 222.181640625 27.10546875 c 0
 176.984375 21.3466796875 127.0546875 110.947265625 110.662109375 239.5703125 c 0
 94.2685546875 368.194335938 117.62109375 467.134765625 162.819335938 472.89453125 c 0
EndSplineSet
EndChar

StartChar: 
Encoding: 120 120 22
Width: 450
VWidth: 750
Flags: HW
LayerCount: 2
Fore
SplineSet
132 500 m 2
 82.947265625 500 10 467.501953125 10 379 c 2
 10 0 l 1
 100 0 l 1
 100 362.736328125 l 2
 100 497.204101562 180 508.485351562 180 362.736328125 c 2
 180 0 l 1
 270 0 l 1
 270 362.736328125 l 2
 270 508.485351562 350 497.204101562 350 362.736328125 c 2
 350 38.18359375 l 1
 350 -25.736328125 l 2
 350 -79.3974609375 363.456054688 -223.072265625 294.45703125 -224.046875 c 0
 275 -227.458984375 261.443359375 -207.509765625 257.71484375 -192.05859375 c 0
 240.959960938 -154.028320312 212.82421875 -155.462890625 193.685546875 -162.173828125 c 0
 146.57421875 -178.693359375 193.74609375 -250 284.22265625 -250 c 0
 412.69921875 -250 440 -85.5 440 -42 c 2
 440 38.18359375 l 1
 440 365 l 1
 440 379 l 2
 440 467.501953125 367.051757812 500 318 500 c 2
 302 500 l 2
 274.819335938 500 243.762695312 484 225 451.501953125 c 1
 206.237304688 484 175.1796875 500 148 500 c 2
 132 500 l 2
EndSplineSet
EndChar

StartChar: 
Encoding: 121 121 23
Width: 420
VWidth: 750
Flags: HW
LayerCount: 2
Fore
SplineSet
109.413085938 500 m 0
 64.87890625 500 23.9375 464.614257812 11.6005859375 405.107421875 c 1
 19.1923828125 391.9921875 l 1
 19.1923828125 391.9921875 49.1767578125 467.627929688 94.5712890625 466.392578125 c 0
 119.825195312 466.392578125 135.256835938 430.581054688 135.256835938 283.232421875 c 1
 2.0634765625 244.487304688 10.0927734375 112.130859375 10.0927734375 112.130859375 c 1
 10.0927734375 34.5888671875 45.30859375 0 114.348632812 0 c 0
 176.205078125 0 218.547851562 70.7578125 218.547851562 250 c 0
 218.547851562 259.502929688 218.294921875 264.866210938 217.844726562 274.09375 c 1
 231.223632812 274.549804688 239.859375 274.026367188 245.500976562 273.55078125 c 1
 245.500976562 93 l 2
 245.500976562 49.5 270.203125 0 320.934570312 0 c 0
 381.28515625 0 401.209960938 62.05859375 409.500976562 93 c 1
 399.500976562 105 l 1
 381.889648438 58.078125 356.866210938 53.751953125 344.776367188 64.33203125 c 0
 334.294921875 73.50390625 335.500976562 93.69921875 335.500976562 109.263671875 c 2
 335.500976562 401.005859375 l 1
 335.500976562 500 l 1
 245.500976562 479.009765625 l 1
 200.500976562 468.05078125 l 1
 200.500976562 455.05078125 l 1
 243.157226562 455.05078125 245.500976562 438.6484375 245.500976562 405.009765625 c 2
 245.500976562 401.005859375 l 1
 245.500976562 289.79296875 l 1
 235.954101562 289.810546875 226.408203125 289.860351562 216.864257812 289.537109375 c 1
 207.865234375 406.840820312 163.19921875 500 109.413085938 500 c 0
135.551757812 265.82421875 m 1
 135.614257812 260.572265625 135.723632812 255.494140625 135.723632812 250 c 0
 135.723632812 77.2060546875 124.23046875 40 99.5830078125 40 c 0
 64.431640625 40 42.7607421875 250 135.551757812 265.82421875 c 1
EndSplineSet
EndChar

StartChar: 
Encoding: 122 122 24
Width: 442
VWidth: 750
Flags: HW
LayerCount: 2
Fore
SplineSet
145 500 m 1
 55 479.009765625 l 1
 10 468.05078125 l 1
 10 455.05078125 l 1
 52.6572265625 455.05078125 55 438.6484375 55 405.009765625 c 2
 55 0 l 1
 145 0 l 1
 268.5 398.294921875 l 1
 268.5 93 l 2
 268.5 49.5 293.204101562 0 343.935546875 0 c 0
 404.286132812 0 424.208984375 62.05859375 432.5 93 c 1
 422.5 105 l 1
 404.888671875 58.078125 379.865234375 53.751953125 367.775390625 64.33203125 c 0
 357.293945312 73.50390625 358.5 93.69921875 358.5 109.263671875 c 2
 358.5 500 l 1
 268.5 500 l 1
 145 101.705078125 l 1
 145 500 l 1
115.744140625 -78.251953125 m 1
 119.504882812 -133.266601562 165.321289062 -176.900390625 221.25 -177.04296875 c 0
 277.178710938 -176.900390625 322.995117188 -133.266601562 326.755859375 -78.251953125 c 1
 326.748046875 -78.3447265625 313.037109375 -78.251953125 313.037109375 -78.251953125 c 1
 306.58984375 -102.88671875 267.926757812 -121.900390625 221.25 -121.91796875 c 0
 174.57421875 -121.899414062 135.912109375 -102.88671875 129.46484375 -78.251953125 c 1
 129.469726562 -78.3037109375 115.744140625 -78.251953125 115.744140625 -78.251953125 c 1
EndSplineSet
EndChar

StartChar: 
Encoding: 92 92 25
Width: 482
VWidth: 750
Flags: HW
LayerCount: 2
Fore
SplineSet
275.74609375 751.3046875 m 1
 185.74609375 730.314453125 l 1
 140.74609375 719.353515625 l 1
 140.74609375 706.353515625 l 1
 183.403320312 706.353515625 185.74609375 689.952148438 185.74609375 656.314453125 c 2
 185.74609375 595.912109375 l 1
 86.08984375 595.912109375 l 1
 86.08984375 567.626953125 l 1
 185.74609375 567.626953125 l 1
 185.74609375 500.4375 l 1
 148.940429688 500.2421875 108.688476562 500 86.08984375 500 c 1
 86.08984375 467.501953125 l 1
 185.74609375 467.501953125 l 1
 185.74609375 1.3046875 l 1
 275.74609375 1.3046875 l 1
 275.74609375 14.408203125 l 1
 292 5.103515625 309.763671875 0 328.854492188 0 c 0
 410.696289062 0 470.013671875 50.77734375 471.98828125 137.724609375 c 2
 471.98828125 408.3046875 l 2
 471.98828125 451.8046875 444.6875 501.3046875 367.123046875 501.3046875 c 0
 351.1171875 501.3046875 311.368164062 501.05859375 275.74609375 500.85546875 c 1
 275.74609375 567.626953125 l 1
 462.57421875 567.626953125 l 1
 462.57421875 595.912109375 l 1
 275.74609375 595.912109375 l 1
 275.74609375 751.3046875 l 1
275.74609375 467.501953125 m 1
 333.197265625 467.501953125 l 2
 360.985351562 467.501953125 377.322265625 437.809570312 381.98828125 392.041015625 c 1
 381.98828125 139.87109375 l 1
 381.98828125 137.724609375 l 1
 381.994140625 137.724609375 l 1
 382.581054688 58.7451171875 353.388671875 37 327.609375 37 c 0
 315.018554688 37 296.119140625 36.94140625 275.74609375 47.5859375 c 1
 275.74609375 467.501953125 l 1
82.2109375 343.560546875 m 1
 78.5302734375 343.712890625 74.728515625 343.55078125 70.810546875 343.04296875 c 2
 70.80859375 343.04296875 l 2
 37.224609375 343.041992188 9.9990234375 315.815429688 10 282.23046875 c 0
 10.0009765625 248.645507812 37.2265625 221.419921875 70.810546875 221.419921875 c 0
 79.2021484375 221.741210938 88.0576171875 223.076171875 95.7109375 226.75 c 0
 115.138671875 238.377929688 121.37890625 226.625 122.34375 221.419921875 c 0
 128.926757812 185.904296875 88.9619140625 79.56640625 25.443359375 79.56640625 c 1
 35.7734375 61.677734375 l 1
 115.306640625 61.677734375 161.798828125 167.788085938 161.798828125 221.419921875 c 1
 165.833984375 267.946289062 137.431640625 341.270507812 82.2109375 343.560546875 c 1
EndSplineSet
EndChar

StartChar: 
Encoding: 58 58 26
Width: 320
VWidth: 750
Flags: HW
LayerCount: 2
Fore
SplineSet
13.5146484375 500 m 1
 13.5146484375 471.71484375 l 1
 198.684570312 471.71484375 l 1
 10 0 l 1
 110 0 l 1
 110.001953125 0.00390625 l 1
 110.001953125 0 l 1
 306.486328125 0 l 1
 306.486328125 28.28515625 l 1
 121.314453125 28.28515625 l 1
 310 500 l 1
 210.001953125 500 l 1
 13.5146484375 500 l 1
EndSplineSet
EndChar

StartChar: 
Encoding: 39 39 27
Width: 200
VWidth: 750
Flags: HW
LayerCount: 2
Fore
SplineSet
10 554 m 1
 95.2548828125 692.676757812 l 1
 190 692.676757812 l 1
 36.49609375 554 l 1
 10 554 l 1
EndSplineSet
EndChar

StartChar: 
Encoding: 94 94 28
Width: 285
VWidth: 750
Flags: HW
LayerCount: 2
Fore
SplineSet
95.255859375 692.67578125 m 1
 10 554 l 1
 36.49609375 554 l 1
 142.626953125 649.87890625 l 1
 248.759765625 554 l 1
 275.255859375 554 l 1
 190 692.67578125 l 1
 95.255859375 692.67578125 l 1
EndSplineSet
EndChar

StartChar: 
Encoding: 33 33 29
Width: 356
VWidth: 750
Flags: HW
LayerCount: 2
Fore
SplineSet
345.04296875 750 m 1
 255.04296875 729.009765625 l 1
 210.04296875 718.05078125 l 1
 210.04296875 705.05078125 l 1
 252.69921875 705.05078125 255.04296875 688.6484375 255.04296875 655.009765625 c 2
 255.04296875 500.865234375 l 1
 255.04296875 401.87109375 l 1
 255.04296875 250 l 1
 255.04296875 110.12890625 l 2
 255.04296875 94.564453125 256.249023438 74.369140625 245.767578125 65.197265625 c 0
 233.677734375 54.6171875 208.653320312 58.943359375 191.04296875 105.865234375 c 1
 181.04296875 93.865234375 l 1
 189.333007812 62.923828125 209.258789062 0.865234375 269.608398438 0.865234375 c 0
 320.33984375 0.865234375 345.04296875 50.365234375 345.04296875 93.865234375 c 1
 345.40625 92.9560546875 346.461914062 330.451171875 345.04296875 401.87109375 c 2
 345.04296875 405.875 l 1
 345.04296875 479.875 l 1
 345.04296875 750 l 1
145 628.4140625 m 1
 55 607.42578125 l 1
 10 596.46484375 l 1
 10 583.46484375 l 1
 52.65625 583.46484375 55 567.063476562 55 533.42578125 c 2
 55 228.4140625 l 1
 55 207.42578125 l 1
 145 228.4140625 l 1
 145 607.42578125 l 1
 145 628.4140625 l 1
EndSplineSet
EndChar

StartChar: 
Encoding: 48 48 30
Width: 320
VWidth: 750
Flags: HW
LayerCount: 2
Fore
SplineSet
10 500 m 1
 210 0 l 1
 310 0 l 1
 110 500 l 1
 10 500 l 1
EndSplineSet
EndChar

StartChar: 
Encoding: 49 49 31
Width: 155
VWidth: 750
Flags: HW
LayerCount: 2
Fore
SplineSet
145 750 m 1
 55 729.009765625 l 1
 10 718.05078125 l 1
 10 705.05078125 l 1
 52.6572265625 705.05078125 55 688.6484375 55 655.009765625 c 2
 55 250 l 1
 55 -250 l 1
 145 -229.009765625 l 1
 145 250 l 1
 145 750 l 1
EndSplineSet
EndChar

StartChar: 
Encoding: 50 50 32
Width: 372
VWidth: 750
Flags: HW
LayerCount: 2
Fore
SplineSet
362.4140625 750 m 1
 272.4140625 729.009765625 l 1
 227.4140625 718.05078125 l 1
 227.4140625 705.05078125 l 1
 270.071289062 705.05078125 272.4140625 688.6484375 272.4140625 655.009765625 c 2
 272.4140625 250 l 1
 272.4140625 -250 l 1
 362.4140625 -229.009765625 l 1
 362.4140625 250 l 1
 362.4140625 750 l 1
145 557.990234375 m 1
 55 537 l 1
 10 526.0390625 l 1
 10 513.0390625 l 1
 52.6572265625 513.0390625 55 496.637695312 55 463 c 2
 55 57.990234375 l 1
 55 0 l 1
 145 20.990234375 l 1
 145 500 l 1
 145 557.990234375 l 1
EndSplineSet
EndChar

StartChar: 
Encoding: 51 51 33
Width: 508
VWidth: 750
Flags: HW
LayerCount: 2
Fore
SplineSet
497.923828125 750 m 1
 407.923828125 729.009765625 l 1
 362.923828125 718.05078125 l 1
 362.923828125 705.05078125 l 1
 405.580078125 705.05078125 407.923828125 688.6484375 407.923828125 655.009765625 c 2
 407.923828125 250 l 1
 407.923828125 -250 l 1
 497.923828125 -229.009765625 l 1
 497.923828125 250 l 1
 497.923828125 750 l 1
145 557.990234375 m 1
 55 537 l 1
 10 526.0390625 l 1
 10 513.0390625 l 1
 52.6572265625 513.0390625 55 496.637695312 55 463 c 2
 55 57.990234375 l 1
 55 0 l 1
 145 20.990234375 l 1
 145 500 l 1
 145 557.990234375 l 1
320.509765625 557.990234375 m 1
 230.509765625 537 l 1
 185.509765625 526.0390625 l 1
 185.509765625 513.0390625 l 1
 228.166015625 513.0390625 230.509765625 496.637695312 230.509765625 463 c 2
 230.509765625 57.990234375 l 1
 230.509765625 0 l 1
 320.509765625 20.990234375 l 1
 320.509765625 500 l 1
 320.509765625 557.990234375 l 1
EndSplineSet
EndChar

StartChar: 
Encoding: 52 52 34
Width: 436
VWidth: 750
Flags: HW
LayerCount: 2
Fore
SplineSet
281.306640625 750 m 1
 189.751953125 446.576171875 l 1
 10 637.724609375 l 1
 10 580.4296875 l 1
 176.662109375 403.19921875 l 1
 55 0 l 1
 155 0 l 1
 252.369140625 322.69140625 l 1
 426.30859375 137.724609375 l 1
 426.30859375 195.021484375 l 1
 265.458984375 366.0703125 l 1
 381.306640625 750 l 1
 281.306640625 750 l 1
EndSplineSet
EndChar

StartChar: 
Encoding: 53 53 35
Width: 342
VWidth: 750
Flags: HW
LayerCount: 2
Fore
SplineSet
10 422.501953125 m 1
 10 332.501953125 l 1
 332 332.501953125 l 1
 332 422.501953125 l 1
 10 422.501953125 l 1
EndSplineSet
EndChar

StartChar: 
Encoding: 54 54 36
Width: 428
VWidth: 750
Flags: HW
LayerCount: 2
Fore
SplineSet
259 750 m 1
 169 729.009765625 l 1
 124 718.05078125 l 1
 124 705.05078125 l 1
 166.65625 705.05078125 169 688.6484375 169 655.009765625 c 2
 169 415 l 1
 10 415 l 1
 10 370 l 1
 169 370 l 1
 169 250 l 1
 169 0 l 1
 259 20.990234375 l 1
 259 250 l 1
 259 370 l 1
 418 370 l 1
 418 415 l 1
 259 415 l 1
 259 750 l 1
EndSplineSet
EndChar

StartChar: 
Encoding: 55 55 37
Width: 502
VWidth: 750
Flags: HW
LayerCount: 2
Fore
SplineSet
387.4140625 750 m 1
 297.4140625 729.009765625 l 1
 252.4140625 718.05078125 l 1
 252.4140625 705.05078125 l 1
 295.071289062 705.05078125 297.4140625 688.6484375 297.4140625 655.009765625 c 2
 297.4140625 415 l 1
 210 415 l 1
 210 667.990234375 l 1
 120 647 l 1
 75 636.0390625 l 1
 75 623.0390625 l 1
 117.657226562 623.0390625 120 606.637695312 120 573 c 2
 120 415 l 1
 10 415 l 1
 10 370 l 1
 120 370 l 1
 120 167.990234375 l 1
 120 110 l 1
 210 130.990234375 l 1
 210 167.990234375 l 1
 210 370 l 1
 297.4140625 370 l 1
 297.4140625 250 l 1
 297.4140625 0 l 1
 387.4140625 20.990234375 l 1
 387.4140625 250 l 1
 387.4140625 370 l 1
 492 370 l 1
 492 415 l 1
 387.4140625 415 l 1
 387.4140625 750 l 1
EndSplineSet
EndChar

StartChar: 
Encoding: 56 56 38
Width: 662
VWidth: 750
Flags: HW
LayerCount: 2
Fore
SplineSet
554.755859375 750 m 1
 464.755859375 729.009765625 l 1
 419.755859375 718.05078125 l 1
 419.755859375 705.05078125 l 1
 462.413085938 705.05078125 464.755859375 688.6484375 464.755859375 655.009765625 c 2
 464.755859375 415 l 1
 377.341796875 415 l 1
 377.341796875 667.990234375 l 1
 287.341796875 647 l 1
 242.341796875 636.0390625 l 1
 242.341796875 623.0390625 l 1
 284.999023438 623.0390625 287.341796875 606.637695312 287.341796875 573 c 2
 287.341796875 415 l 1
 199.927734375 415 l 1
 199.927734375 667.990234375 l 1
 109.927734375 647 l 1
 64.927734375 636.0390625 l 1
 64.927734375 623.0390625 l 1
 107.584960938 623.0390625 109.927734375 606.637695312 109.927734375 573 c 2
 109.927734375 415 l 1
 10 415 l 1
 10 370 l 1
 109.927734375 370 l 1
 109.927734375 167.990234375 l 1
 109.927734375 110 l 1
 199.927734375 130.990234375 l 1
 199.927734375 167.990234375 l 1
 199.927734375 370 l 1
 287.341796875 370 l 1
 287.341796875 167.990234375 l 1
 287.341796875 110 l 1
 377.341796875 130.990234375 l 1
 377.341796875 167.990234375 l 1
 377.341796875 370 l 1
 464.755859375 370 l 1
 464.755859375 250 l 1
 464.755859375 0 l 1
 554.755859375 20.990234375 l 1
 554.755859375 250 l 1
 554.755859375 370 l 1
 652 370 l 1
 652 415 l 1
 554.755859375 415 l 1
 554.755859375 750 l 1
EndSplineSet
EndChar

StartChar: 
Encoding: 57 57 39
Width: 392
VWidth: 750
Flags: HW
LayerCount: 2
Fore
SplineSet
10 750 m 1
 10 711.724609375 l 1
 270.134765625 711.724609375 l 1
 175.90234375 399.43359375 l 1
 10.376953125 575.3046875 l 1
 10.376953125 518.0078125 l 1
 162.810546875 356.046875 l 1
 55.375 0 l 1
 155.375 0 l 1
 238.533203125 275.591796875 l 1
 368.685546875 137.3046875 l 1
 368.685546875 194.599609375 l 1
 251.625 318.9765625 l 1
 381.68359375 750 l 1
 350 750 l 1
 10 750 l 1
EndSplineSet
EndChar

StartChar: 
Encoding: 256 8557 40
Width: 422
VWidth: 750
Flags: HW
LayerCount: 2
Fore
SplineSet
257.287109375 750 m 1
 167.287109375 729.009765625 l 1
 122.287109375 718.05078125 l 1
 122.287109375 705.05078125 l 1
 164.944335938 705.05078125 167.287109375 688.647460938 167.287109375 655.009765625 c 2
 167.287109375 647.048828125 l 1
 23.740234375 647.048828125 l 1
 23.740234375 614.55078125 l 1
 167.287109375 614.55078125 l 1
 167.287109375 500 l 1
 10 500 l 1
 10 467.501953125 l 1
 412 467.501953125 l 1
 412 500 l 1
 257.287109375 500 l 1
 257.287109375 614.55078125 l 1
 398.259765625 614.55078125 l 1
 398.259765625 647.048828125 l 1
 257.287109375 647.048828125 l 1
 257.287109375 750 l 1
64.515625 400 m 1
 64.515625 371.71484375 l 1
 138.515625 371.71484375 l 1
 246.857421875 371.71484375 l 1
 61 0 l 1
 161 0 l 1
 357.484375 0 l 1
 357.484375 28.28515625 l 1
 283.484375 28.28515625 l 1
 175.142578125 28.28515625 l 1
 361 400 l 1
 261 400 l 1
 64.515625 400 l 1
EndSplineSet
EndChar

StartChar: quotedbl
Encoding: 34 34 41
Width: 261
VWidth: 774
Flags: HW
LayerCount: 2
Fore
SplineSet
197 749 m 128
 211.666992188 749 224.333007812 742.166992188 235 728.5 c 128
 245.666992188 714.833007812 251 698.666992188 251 680 c 0
 251 678 250.666992188 676 250 674 c 0
 250 669.333007812 249.666992188 665 249 661 c 0
 243.666992188 629.666992188 229.666992188 576 207 500 c 1
 187 500 l 1
 164.333007812 576 150.333007812 629.666992188 145 661 c 0
 144.333007812 665 143.666992188 669.333007812 143 674 c 0
 143 677 143 677 143 680 c 0
 143 698.666992188 148.333007812 714.833007812 159 728.5 c 128
 169.666992188 742.166992188 182.333007812 749 197 749 c 128
64 749 m 128
 78.6669921875 749 91.3330078125 742.166992188 102 728.5 c 128
 112.666992188 714.833007812 118 698.666992188 118 680 c 0
 118 678 117.666992188 676 117 674 c 0
 117 669.333007812 116.666992188 665 116 661 c 0
 110.666992188 629.666992188 96.6669921875 576 74 500 c 1
 54 500 l 1
 31.3330078125 576 17.3330078125 629.666992188 12 661 c 0
 11.3330078125 665 10.6669921875 669.333007812 10 674 c 0
 10 677 10 677 10 679 c 2
 10 680 l 2
 10 698.666992188 15.3330078125 714.833007812 26 728.5 c 128
 36.6669921875 742.166992188 49.3330078125 749 64 749 c 128
EndSplineSet
EndChar

StartChar: parenleft
Encoding: 40 40 45
Width: 279
VWidth: 774
Flags: HW
LayerCount: 2
Fore
SplineSet
269 750 m 1
 269 731 l 1
 244.333007812 731 219.333007812 706.166992188 194 656.5 c 128
 168.666992188 606.833007812 148 544.333007812 132 469 c 128
 116 393.666992188 108 320.666992188 108 250 c 128
 108 179.333007812 116 106.333007812 132 31 c 128
 148 -44.3330078125 168.666992188 -106.833007812 194 -156.5 c 128
 219.333007812 -206.166992188 244.333007812 -231 269 -231 c 1
 269 -250 l 1
 235 -250 202.166992188 -237.333007812 170.5 -212 c 128
 138.833007812 -186.666992188 110.666992188 -150.666992188 86 -104 c 0
 35.3330078125 -6 10 112 10 250 c 128
 10 388 35.3330078125 506 86 604 c 0
 110.666992188 650.666992188 138.833007812 686.666992188 170.5 712 c 128
 202.166992188 737.333007812 235 750 269 750 c 1
EndSplineSet
EndChar

StartChar: parenright
Encoding: 41 41 46
Width: 279
VWidth: 774
Flags: HW
LayerCount: 2
Fore
SplineSet
10 750 m 1
 44.6669921875 750 77.8330078125 737.333007812 109.5 712 c 128
 141.166992188 686.666992188 169 650.666992188 193 604 c 0
 243.666992188 506 269 388 269 250 c 128
 269 112 243.666992188 -6 193 -104 c 0
 169 -150.666992188 141.166992188 -186.666992188 109.5 -212 c 128
 77.8330078125 -237.333007812 44.6669921875 -250 10 -250 c 1
 10 -231 l 1
 34.6669921875 -231 59.6669921875 -206.166992188 85 -156.5 c 128
 110.333007812 -106.833007812 131.166992188 -44.3330078125 147.5 31 c 128
 163.833007812 106.333007812 172 179.333007812 172 250 c 128
 172 320.666992188 163.833007812 393.666992188 147.5 469 c 128
 131.166992188 544.333007812 110.333007812 606.833007812 85 656.5 c 128
 59.6669921875 706.166992188 34.6669921875 731 10 731 c 1
 10 750 l 1
EndSplineSet
EndChar

StartChar: plus
Encoding: 43 43 48
Width: 340
VWidth: 774
Flags: HW
LayerCount: 2
Fore
SplineSet
125 360 m 1
 215 360 l 1
 215 168 l 1
 330 168 l 1
 330 140 l 1
 215 140 l 1
 125 140 l 1
 10 140 l 1
 10 168 l 1
 125 168 l 1
 125 360 l 1
EndSplineSet
EndChar

StartChar: comma
Encoding: 44 44 49
Width: 172
VWidth: 774
Flags: HW
LayerCount: 2
Fore
SplineSet
82 122 m 0
 106 121.333007812 125.333007812 108.833007812 140 84.5 c 128
 154.666992188 60.1669921875 162 35 162 9 c 0
 162 4 162 4 162 0 c 0
 162 -19.3330078125 157.166992188 -41 147.5 -65 c 128
 137.833007812 -89 123 -110.833007812 103 -130.5 c 128
 83 -150.166992188 60.6669921875 -160 36 -160 c 1
 25 -142 l 1
 43.6669921875 -142 60.8330078125 -133.666992188 76.5 -117 c 128
 92.1669921875 -100.333007812 103.833007812 -81.8330078125 111.5 -61.5 c 128
 119.166992188 -41.1669921875 123 -23.6669921875 123 -9 c 0
 123 -5.6669921875 122.666992188 -2.6669921875 122 0 c 0
 120.666992188 6.6669921875 116.666992188 10 110 10 c 0
 106 10 101.333007812 8.3330078125 96 5 c 0
 89.3330078125 2.3330078125 81 0.6669921875 71 0 c 0
 53.6669921875 0 39.1669921875 6 27.5 18 c 128
 15.8330078125 30 10 44.3330078125 10 61 c 128
 10 77.6669921875 15.8330078125 92 27.5 104 c 128
 39.1669921875 116 53.6669921875 122 71 122 c 0
 76 122 76 122 82 122 c 0
EndSplineSet
EndChar

StartChar: hyphen
Encoding: 45 45 50
Width: 228
VWidth: 774
Flags: HW
LayerCount: 2
Fore
SplineSet
10 322 m 1
 218 322 l 1
 218 274 l 1
 10 274 l 1
 10 322 l 1
EndSplineSet
EndChar

StartChar: period
Encoding: 46 46 51
Width: 142
VWidth: 774
Flags: HW
LayerCount: 2
Fore
SplineSet
132 61 m 128
 132 44.3330078125 126 30 114 18 c 128
 102 6 87.6669921875 0 71 0 c 128
 54.3330078125 0 40 6 28 18 c 128
 16 30 10 44.3330078125 10 61 c 128
 10 77.6669921875 16 92 28 104 c 128
 40 116 54.3330078125 122 71 122 c 128
 87.6669921875 122 102 116 114 104 c 128
 126 92 132 77.6669921875 132 61 c 128
EndSplineSet
EndChar

StartChar: slash
Encoding: 47 47 52
Width: 386
VWidth: 774
Flags: HW
LayerCount: 2
Fore
SplineSet
336 749 m 1
 376 749 l 1
 50 -250 l 1
 10 -250 l 1
 336 749 l 1
EndSplineSet
EndChar

StartChar: equal
Encoding: 61 61 56
Width: 320
VWidth: 774
Flags: HW
LayerCount: 2
Fore
SplineSet
14 360 m 1
 210 360 l 1
 310 360 l 1
 136 168 l 1
 306 168 l 1
 306 140 l 1
 110 140 l 1
 10 140 l 1
 184 332 l 1
 14 332 l 1
 14 360 l 1
EndSplineSet
EndChar

StartChar: question
Encoding: 63 63 58
Width: 391
VWidth: 774
Flags: HW
LayerCount: 2
Fore
SplineSet
46 750 m 1
 337 750 l 1
 337 712 l 1
 331 703.333007812 323 691.666992188 313 677 c 128
 303 662.333007812 284.833007812 633.833007812 258.5 591.5 c 128
 232.166992188 549.166992188 209.166992188 508.833007812 189.5 470.5 c 128
 169.833007812 432.166992188 151.833007812 390 135.5 344 c 128
 119.166992188 298 111 259.333007812 111 228 c 0
 111 186.666992188 121.333007812 150.833007812 142 120.5 c 128
 162.666992188 90.1669921875 188 75 218 75 c 0
 230 75 240 75.5 248 76.5 c 128
 256 77.5 265.333007812 79.6669921875 276 83 c 128
 286.666992188 86.3330078125 295.666992188 91.8330078125 303 99.5 c 128
 310.333007812 107.166992188 317.833007812 117.166992188 325.5 129.5 c 128
 333.166992188 141.833007812 339.833007812 158.166992188 345.5 178.5 c 128
 351.166992188 198.833007812 355.666992188 222.666992188 359 250 c 1
 381 250 l 1
 373.666992188 83.3330078125 313.666992188 0 201 0 c 0
 175 0 150.833007812 3.3330078125 128.5 10 c 128
 106.166992188 16.6669921875 86 27 68 41 c 128
 50 55 35.8330078125 74.3330078125 25.5 99 c 128
 15.1669921875 123.666992188 10 152.666992188 10 186 c 0
 10 310.666992188 81.3330078125 486 224 712 c 1
 120 712 l 2
 109.333007812 712 101.333007812 711.5 96 710.5 c 128
 90.6669921875 709.5 84.6669921875 707.166992188 78 703.5 c 128
 71.3330078125 699.833007812 66.5 693.333007812 63.5 684 c 128
 60.5 674.666992188 59 662.333007812 59 647 c 1
 46 647 l 1
 46 712 l 1
 46 750 l 1
EndSplineSet
EndChar

StartChar: bar
Encoding: 124 124 60
Width: 340
VWidth: 774
Flags: HW
LayerCount: 2
Fore
SplineSet
10 360 m 1
 125 360 l 1
 215 360 l 1
 330 360 l 1
 330 332 l 1
 215 332 l 1
 215 140 l 1
 125 140 l 1
 125 332 l 1
 10 332 l 1
 10 360 l 1
EndSplineSet
EndChar

StartChar: k
Encoding: 107 107 61
Width: 322
VWidth: 750
Flags: HW
LayerCount: 2
Fore
SplineSet
168 500 m 0
 80.7392578125 500 10 388.071289062 10 250 c 0
 10 111.928710938 80.7392578125 0 168 0 c 0
 231.830078125 0 286.783203125 59.9267578125 311.7109375 146.130859375 c 1
 293.296875 146.130859375 l 1
 240.565429688 59.3359375 202.16015625 74.091796875 184.791015625 74.091796875 c 0
 167.999023438 74.091796875 109.1484375 98.3369140625 109.1484375 250 c 0
 109.1484375 262.2578125 109.247070312 272.85546875 109.314453125 283.94140625 c 1
 303.7109375 283.94140625 l 1
 303.7109375 283.990234375 l 1
 304.422851562 283.985351562 304.975585938 283.94140625 305.7109375 283.94140625 c 0
 315.321289062 416.948242188 264.389648438 500 168 500 c 0
156.685546875 467.302734375 m 0
 199.943359375 467.302734375 228.416015625 395.340820312 228.416015625 312.224609375 c 1
 109.544921875 312.224609375 l 1
 111.220703125 423.837890625 119.671875 467.302734375 156.685546875 467.302734375 c 0
EndSplineSet
EndChar
